<?xml version="1.0" standalone="no"?>
<!DOCTYPE svg PUBLIC "-//W3C//DTD SVG 20010904//EN"
 "http://www.w3.org/TR/2001/REC-SVG-20010904/DTD/svg10.dtd">
<svg version="1.0" xmlns="http://www.w3.org/2000/svg"
 width="700.000000pt" height="700.000000pt" viewBox="0 0 700.000000 700.000000"
 preserveAspectRatio="xMidYMid meet">
<metadata>
Created by potrace 1.14, written by Peter Selinger 2001-2017
</metadata>
<g transform="translate(0.000000,700.000000) scale(0.100000,-0.100000)"
fill="#000000" stroke="none">
<path d="M1825 6558 c-44 -10 -91 -33 -121 -62 -18 -17 -157 -248 -286 -473
-10 -18 -28 -50 -39 -70 -12 -21 -54 -94 -94 -163 -68 -116 -384 -663 -427
-738 -10 -18 -37 -66 -60 -105 -100 -173 -141 -244 -160 -277 -11 -19 -124
-215 -250 -435 -127 -220 -238 -411 -246 -425 -9 -14 -24 -38 -32 -55 -9 -16
-32 -57 -52 -90 -61 -107 -71 -157 -43 -238 12 -37 363 -655 385 -680 4 -4 61
86 127 200 138 239 409 706 811 1403 154 267 288 499 298 517 11 18 65 112
122 210 57 98 107 185 112 193 5 8 63 110 130 225 76 133 134 222 157 243 70
62 58 61 923 59 867 -3 819 1 887 -66 24 -25 206 -324 289 -476 6 -11 53 -92
104 -180 51 -88 102 -176 112 -195 19 -33 53 -91 91 -155 9 -16 31 -59 49 -93
28 -57 30 -70 25 -127 -5 -54 -21 -98 -58 -155 -5 -8 -41 -71 -80 -140 -40
-69 -121 -210 -182 -315 -60 -104 -118 -206 -129 -225 -11 -19 -53 -91 -93
-160 -176 -303 -295 -513 -295 -522 0 -12 141 -251 145 -246 4 4 277 476 308
532 12 21 27 46 32 55 6 9 25 43 44 76 65 114 323 560 361 625 33 57 534 924
580 1005 10 17 46 80 82 141 36 61 68 117 71 125 4 8 15 28 26 44 10 17 73
125 140 242 l122 212 -47 83 c-26 46 -55 94 -64 108 -10 14 -30 48 -45 75 -70
127 -221 383 -243 412 -13 18 -49 45 -80 60 l-56 27 -1658 1 c-911 0 -1673 -3
-1693 -7z"/>
<path d="M2983 4138 c-39 -68 -127 -221 -197 -342 -69 -120 -126 -220 -126
-223 0 -2 -8 -16 -19 -31 -16 -23 -200 -342 -273 -472 -14 -25 -49 -85 -78
-135 -29 -49 -60 -103 -70 -120 -26 -45 -122 -212 -144 -248 -10 -18 -71 -124
-136 -237 -65 -113 -127 -221 -138 -240 -20 -34 -52 -89 -101 -175 -13 -22
-40 -69 -61 -105 -21 -36 -47 -81 -58 -100 -11 -19 -81 -141 -156 -271 l-137
-236 52 -89 c28 -49 62 -108 75 -131 13 -23 53 -92 89 -153 36 -61 65 -113 65
-114 0 -2 25 -46 56 -97 64 -107 90 -134 154 -162 45 -20 63 -20 1720 -20
1657 -1 1675 0 1720 20 54 24 99 67 132 125 14 24 67 117 120 208 52 91 146
253 208 360 62 107 146 254 188 325 136 236 182 317 182 326 0 5 3 9 8 9 4 0
18 21 31 48 14 26 32 58 42 72 9 14 27 45 41 70 26 46 118 207 250 435 95 163
295 510 318 550 9 17 41 72 71 123 30 50 61 104 69 120 8 15 33 59 56 97 49
85 54 98 61 153 7 56 -15 121 -76 225 -27 45 -58 100 -70 121 -12 21 -63 109
-113 195 -50 86 -101 175 -115 199 -13 23 -25 42 -27 42 -2 0 -68 -111 -147
-247 -78 -137 -154 -268 -169 -293 -15 -25 -45 -76 -66 -113 -22 -38 -47 -83
-58 -100 -10 -18 -94 -165 -187 -327 -93 -162 -174 -302 -179 -310 -15 -24
-73 -123 -85 -145 -6 -11 -47 -81 -90 -155 -42 -74 -119 -207 -170 -295 -50
-88 -136 -236 -190 -330 -54 -93 -136 -235 -182 -315 -45 -80 -87 -152 -92
-160 -6 -8 -20 -33 -31 -55 -67 -124 -125 -183 -200 -202 -20 -6 -378 -9 -825
-8 -784 1 -790 1 -830 22 -22 11 -52 33 -67 48 -15 14 -99 151 -187 303 -87
152 -168 293 -180 312 -11 19 -39 69 -63 110 -23 41 -49 87 -58 101 -143 242
-172 300 -177 358 -7 75 11 120 118 296 10 17 24 41 32 55 7 14 82 144 167
290 84 146 164 285 178 310 14 25 62 108 107 185 176 301 236 409 233 420 -5
19 -132 244 -139 245 -3 0 -37 -55 -76 -122z"/>
</g>
</svg>
